<svg xmlns="http://www.w3.org/2000/svg" viewBox="0 0 120 120">
  <rect width="120" height="120" rx="24" fill="#00B9F5"/>
  <g transform="translate(14, 38)">
    <!-- Paytm wordmark (styled) -->
    <!-- P -->
    <path d="M0 0h7.5c4.8 0 7.8 2.8 7.8 7.2s-3 7.2-7.8 7.2H4.5V22H0V0zm7.2 10.8c2 0 3.3-1.2 3.3-3.6s-1.3-3.5-3.3-3.5H4.5v7.1h2.7z" fill="#002E6E"/>
    <!-- a -->
    <path d="M18 8c3.8 0 6.2 2.8 6.2 7.2V22h-4.2v-2c-.8 1.4-2.2 2.3-4 2.3-3 0-5-1.8-5-4.4 0-2.7 2.1-4.3 5.8-4.3h3v-.4c0-1.7-1-2.7-3-2.7-1.3 0-2.7.5-3.7 1.3l-1.5-3C13.3 8.6 15.4 8 18 8zm.3 11c1.5 0 2.7-.9 3-2.2v-1.5h-2.5c-1.7 0-2.5.6-2.5 1.8 0 1.1.8 1.9 2 1.9z" fill="#002E6E"/>
    <!-- y -->
    <path d="M26 8.3h4.3l3.5 9.3 3.5-9.3h4.2l-6.5 17c-1.2 3-3 4.2-5.7 4.2-1.2 0-2.3-.3-3-.7l1.2-3.2c.5.3 1 .4 1.6.4 1 0 1.7-.5 2.1-1.5L26 8.3z" fill="#002E6E"/>
    <!-- t -->
    <path d="M44 14.8V8.3h-2.5V5h4.3v9.5c0 3 .3 3.8 1.8 3.8.5 0 1-.1 1.5-.3V22c-.8.3-1.7.5-2.8.5-3.3 0-4.8-1.8-4.8-5.2V5h4.5v9.8z" fill="#002E6E"/>
    <!-- m -->
    <path d="M52 8c2 0 3.4.9 4.2 2.3.9-1.5 2.5-2.3 4.3-2.3 3.3 0 5.3 2.2 5.3 6V22h-4.3v-7.4c0-2-1-3-2.4-3-1.5 0-2.5 1.1-2.5 3V22h-4.3v-7.4c0-2-.9-3-2.3-3s-2.5 1.1-2.5 3V22H43V8.3h4.3v2c.9-1.4 2.3-2.3 4-2.3h.7z" fill="#002E6E"/>
  </g>
</svg>
