<svg xmlns="http://www.w3.org/2000/svg" viewBox="0 0 120 120">
  <rect width="120" height="120" rx="24" fill="#5f259f"/>
  <g transform="translate(30, 18)">
    <!-- PhonePe stylized logo mark -->
    <path d="M38.4 16.2c0-4.7-3.8-8.5-8.5-8.5h-3.4c-2.8 0-5 2.2-5 5v35.6L10 41V19.7c0-2.8-2.2-5-5-5C2.2 14.7 0 16.9 0 19.7v30.8c0 1.8.9 3.4 2.5 4.3l20 12.5c1.5 1 3.5 1 5 0l2.5-1.6c1.5-1 2.5-2.6 2.5-4.3V32.8l5.9 3.7V16.2z" fill="#ffffff"/>
    <circle cx="33" cy="8.5" r="7" fill="#ffffff"/>
  </g>
</svg>
